<svg width="200" height="26" viewBox="0 0 200 26" fill="none" xmlns="http://www.w3.org/2000/svg">
<path fill-rule="evenodd" clip-rule="evenodd" d="M43.5825 4.21735C37.0772 4.21735 32.9847 8.74627 32.9847 15.0777C32.9847 21.1815 37.5051 25.2878 43.5825 25.2878C48.9601 25.2878 53.1652 22.2188 53.7495 16.8832H47.3243C47.0106 18.9957 45.8412 20.2984 43.5432 20.2984C40.7373 20.2984 39.6087 17.6521 39.6087 15.0777C39.6087 12.3172 40.1931 9.20596 43.894 9.20596C45.5676 9.20596 47.0877 10.4006 47.1293 12.0874H53.5529C53.0888 6.82809 48.6093 4.21735 43.5825 4.21735ZM114.562 4.2166C111.695 4.2166 109.679 5.51478 108.473 7.60383H108.392V4.79348H101.967V24.7131H108.588V14.37C108.588 11.4621 109.86 9.58627 112.171 9.58703C115.608 9.58703 115.484 12.3528 115.484 15.0762V24.7131H122.108V11.9301C122.108 9.05097 121.303 4.2166 114.562 4.2166ZM133.894 4.2166C131.593 4.2166 129.257 4.6022 127.464 5.60173C125.672 6.63454 124.425 8.32513 124.31 10.9344H130.504C130.816 9.24603 131.984 8.44232 133.815 8.44232C135.18 8.44232 137.009 9.01241 137.009 10.5094C137.009 11.7419 136.385 12.1222 135.257 12.3543C130.66 13.2729 123.492 12.7762 123.492 19.2595C123.492 23.3688 126.53 25.2863 130.384 25.2863C132.803 25.2863 135.337 24.596 137.049 22.832C137.128 23.4845 137.204 24.0962 137.437 24.7131H144.101C143.322 23.1397 143.323 21.2957 143.323 19.6058V10.8928C143.323 5.25469 138.682 4.2166 133.893 4.2166H133.894ZM136.932 15.3854C137.088 19.4939 136.034 21.2564 132.88 21.2564C131.399 21.2564 130.115 20.6023 130.115 18.9949C130.115 17.4185 131.363 16.8038 132.842 16.4598C134.286 16.0765 135.998 15.9638 136.932 15.3862L136.932 15.3854ZM145.485 0.353787V24.7147H152.107V0.353031L145.485 0.353787ZM167.87 0.353787V6.94453H167.789C166.426 5.14052 164.517 4.21886 162.024 4.21886C156.296 4.21886 153.493 9.13111 153.493 14.3118C153.493 19.9151 156.182 25.2878 162.53 25.2878C164.868 25.2878 166.816 24.2905 168.102 22.4094H168.178V24.7139H174.492V0.353787H167.87ZM164.166 9.20747C167.049 9.20747 168.102 11.8575 168.102 14.7344C168.102 17.2658 167.401 20.2984 164.166 20.2984C161.128 20.2984 160.117 17.2665 160.117 14.5424C160.117 12.011 161.128 9.20747 164.166 9.20747ZM175.874 0.353787V6.94302H178.973L182.068 0.353787H175.874ZM55.1343 0.353787V24.7147H65.7669C73.2806 24.7147 77.8863 20.4148 77.8863 12.4344C77.8863 4.89102 73.3486 0.353787 65.7669 0.353787H55.1343ZM62.1914 6.0017H65.1667C69.015 6.0017 70.74 8.53608 70.74 12.4155C70.74 16.6828 69.3491 19.069 65.1667 19.069H62.1914V6.0017ZM5.10842 0.319763L0 24.7139H7.29374L9.17368 15.0263C9.3748 13.9559 9.54595 12.88 9.68694 11.8001H9.76026C9.87516 12.4745 10.1722 13.8097 10.4708 14.9491L13.121 24.7139H20.3702L23.0158 14.9491C23.3174 13.8097 23.613 12.4745 23.7264 11.8001H23.8043C23.8685 12.318 24.0718 13.7787 24.316 15.0263L26.1959 24.7139H33.4882L28.3805 0.319763H20.6506L17.5537 12.572C17.2944 13.5217 16.9746 15.0595 16.7811 15.8617H16.7086C16.512 15.0595 16.1945 13.5217 15.936 12.572L12.8376 0.319763L5.10842 0.319763ZM89.9075 4.21735C83.3795 4.21735 79.2674 8.78634 79.2674 14.7707C79.2674 20.7566 83.378 25.3241 89.906 25.3241C96.4348 25.3241 100.543 20.7573 100.543 14.7707C100.543 8.78634 96.4355 4.21735 89.9075 4.21735ZM89.906 9.20596C92.7686 9.20596 93.9176 11.5823 93.9176 14.7707C93.9176 17.9621 92.7694 20.3354 89.9068 20.3354C87.0419 20.3354 85.8929 17.9621 85.8929 14.7707C85.8929 11.5816 87.0411 9.20596 89.906 9.20596ZM189.945 4.21508C186.025 4.21508 180.662 5.51932 180.662 10.3182C180.662 15.6916 185.986 15.8043 190.101 16.8416C191.252 17.1123 193.292 17.417 193.291 18.9533C193.291 20.529 191.483 21.0658 190.214 21.0658C189.291 21.0658 188.494 20.8352 187.881 20.374C187.227 19.8735 186.805 19.1424 186.805 18.1474H180.486C180.68 23.7151 185.524 25.2863 190.254 25.2863C194.753 25.2863 200 23.5201 200 18.1867C200 16.5361 198.964 13.6184 194.926 12.8102C191.926 12.1615 187.372 11.8167 187.372 9.93558C187.372 8.55195 189.103 8.43703 190.177 8.43703C190.986 8.43703 191.628 8.59127 192.167 8.93604C192.705 9.28233 193.014 9.81839 193.014 10.6629H199.136C198.906 5.48227 194.329 4.21508 189.945 4.21508Z" fill="white"/>
</svg>
