<svg width="150" height="28" viewBox="0 0 150 28" fill="none" xmlns="http://www.w3.org/2000/svg">
<g clip-path="url(#clip0_23_2)">
<path d="M114.093 1.97954V4.94297H116.958C118.209 4.94297 119.031 5.73996 119.499 6.25511C119.874 6.67934 128.124 16.128 128.322 16.3765C128.52 16.6249 128.52 16.6278 128.52 16.7854V21.4676C128.52 21.6822 128.498 21.8963 128.457 22.1068C128.398 22.2427 128.311 22.3641 128.201 22.4625C128.091 22.561 127.962 22.6341 127.821 22.6768C127.55 22.7111 127.278 22.7283 127.005 22.7283L124.137 22.7247V25.6881H140.223V22.7247H137.196C136.925 22.7261 136.654 22.7087 136.386 22.6726C136.245 22.6304 136.116 22.5574 136.007 22.4591C135.897 22.3607 135.811 22.2392 135.753 22.1032C135.711 21.8928 135.689 21.6787 135.687 21.464V16.7848C135.669 16.631 135.708 16.4759 135.795 16.3486L144.72 6.06393C145.539 5.14271 145.965 4.94237 147.039 4.94237H150V1.97894H136.743V4.93644H138.744C138.851 4.92993 138.958 4.95466 139.052 5.00767C139.146 5.06068 139.222 5.13974 139.273 5.23547C139.323 5.33121 139.346 5.43959 139.337 5.54773C139.328 5.65588 139.289 5.75924 139.224 5.84554C139.182 5.90613 133.674 12.4485 133.605 12.5122C133.536 12.5759 133.491 12.5605 133.44 12.4909C133.389 12.4212 127.947 5.84555 127.947 5.84555C127.563 5.36979 127.863 4.93645 128.313 4.93645H130.263V1.97896L114.093 1.97954Z" fill="white"/>
<path d="M74.6403 1.97949V4.94291H77.2078C79.0618 4.94291 79.1883 5.98578 79.1883 6.89487V20.7644C79.1883 21.5947 79.2359 22.7341 78.0539 22.7341H74.8858V25.6946H88.4133V22.7341H85.1133C83.7962 22.7341 83.7361 22.1252 83.7211 20.8313V8.94919L102.3 25.6946H107.025L106.776 6.78241C106.8 5.40059 106.884 4.93995 108.3 4.93995H111.261V1.97949H97.4608V4.93995H100.491C101.883 4.93995 102.117 5.48241 102.135 6.78241L102.3 16.6794L86.1721 1.97949H74.6403Z" fill="white"/>
<path d="M13.725 0.488586C10.818 0.488586 7.515 1.0401 4.72501 2.30677C2.121 3.48252 1.89091e-05 5.37024 1.89091e-05 8.50055C-0.00393802 10.1399 0.613262 11.7186 1.72501 12.9128C2.47802 13.6159 3.69321 14.8098 6.8672 15.5129C8.28621 15.8159 11.3192 16.3037 14.3402 16.625C17.3612 16.9462 20.2893 17.2311 21.4893 17.5554C22.4433 17.8008 24.048 18.1342 24.048 19.9524C24.048 21.7706 22.3592 22.3158 22.0652 22.434C21.7712 22.5522 19.743 23.4917 16.101 23.4917C13.6879 23.424 11.2968 23.0087 8.99999 22.2583C7.641 21.7673 6.21632 21.1218 4.88731 19.4824C4.35083 18.7105 4.05311 17.7951 4.03184 16.8522H0.731837V26.1858H4.39804V24.9222C4.39744 24.8284 4.42162 24.7362 4.46805 24.655C4.51449 24.5738 4.5815 24.5066 4.66221 24.4603C4.74292 24.414 4.8344 24.3903 4.92721 24.3916C5.02003 24.3929 5.11083 24.4191 5.19025 24.4676C6.91732 25.2267 8.71377 25.8132 10.5539 26.2189C12.4799 26.625 13.7252 26.9191 16.1192 26.9191C18.6453 26.9676 21.1629 26.6086 23.5769 25.8555C25.18 25.4116 26.6841 24.6616 28.0078 23.6462C28.7524 23.0685 29.3542 22.3243 29.7659 21.472C30.1777 20.6197 30.3882 19.6826 30.3809 18.7343C30.3936 16.9326 29.7053 15.1978 28.4643 13.9036C27.774 13.2272 26.9744 12.6749 26.1 12.2707C25.16 11.8416 24.1841 11.4978 23.1838 11.2432C21.2818 10.7735 17.0102 10.1856 14.9672 9.97959C12.8252 9.75534 9.10806 9.44299 7.62305 8.97936C7.17306 8.83694 6.2549 8.39791 6.2549 7.32215C6.2549 6.55548 6.67495 5.90689 7.50295 5.38265C8.81994 4.54931 11.478 4.03084 14.25 4.03084C16.9332 3.99808 19.5944 4.52309 22.0682 5.57322C22.7327 5.86581 23.3576 6.2427 23.9279 6.69479C24.8575 7.49685 25.5014 8.58456 25.7607 9.79139H28.7221V1.66757H25.4221V2.6098C25.4221 2.91283 25.1221 3.31296 24.5221 2.98267C23.0341 2.20085 18.852 0.509797 13.725 0.488586Z" fill="white"/>
<path d="M53.4392 0.488586C48.2402 0.488586 42.72 2.30655 39.6 5.17018C38.4106 6.26406 37.4611 7.59736 36.8126 9.08427C36.1641 10.5712 35.831 12.1788 35.8347 13.8036C35.8162 15.4351 36.1424 17.0518 36.7917 18.5458C37.441 20.0398 38.3984 21.3767 39.6 22.4672C42.96 25.5187 48.0002 27.1553 53.4392 27.1553C58.8872 27.1553 64.0352 25.5368 67.3142 22.4672C68.4802 21.3511 69.4103 20.0081 70.0485 18.5191C70.6868 17.0302 71.0199 15.4261 71.0279 13.8036C71.044 12.1827 70.7216 10.5767 70.0817 9.09017C69.4418 7.60368 68.4988 6.27019 67.3142 5.17668C63.7952 1.95243 59.1902 0.488586 53.4392 0.488586ZM53.4392 3.95509C56.2832 3.95509 59.0222 4.98872 60.8672 6.82205C62.6522 8.5978 63.5847 11.1069 63.5847 13.7917C63.5847 16.6039 62.7362 18.8827 60.8672 20.7614C58.9982 22.6402 56.3222 23.6462 53.4392 23.6462C50.5772 23.6462 47.844 22.619 45.999 20.7614C45.1166 19.8366 44.4238 18.7448 43.9605 17.5487C43.4971 16.3526 43.2723 15.0759 43.299 13.7917C43.299 11.119 44.22 8.60082 45.999 6.82205C47.844 4.97962 50.5952 3.95509 53.4392 3.95509Z" fill="white"/>
</g>
<defs>
<clipPath id="clip0_23_2">
<rect width="150" height="26.6667" fill="white" transform="translate(0 0.488586)"/>
</clipPath>
</defs>
</svg>
