<svg width="687" height="687" viewBox="0 0 687 687" fill="none" xmlns="http://www.w3.org/2000/svg">
<path d="M401.589 58.3704C401.589 26.1333 375.455 0 343.218 0C310.981 0 284.848 26.1333 284.848 58.3705V122.359L253.233 66.7259C237.306 38.6981 201.673 28.8888 173.645 44.8161C145.618 60.7434 135.808 96.376 151.736 124.404L187.711 187.711L124.404 151.736C96.3761 135.808 60.7435 145.618 44.8162 173.645C28.8889 201.673 38.6982 237.306 66.7259 253.233L122.36 284.848H58.3705C26.1333 284.848 0 310.981 0 343.218C0 375.455 26.1333 401.589 58.3704 401.589H122.359L66.7259 433.203C38.6982 449.131 28.8889 484.763 44.8162 512.791C60.7435 540.819 96.3761 550.628 124.404 534.701L187.712 498.725L151.736 562.033C135.808 590.06 145.618 625.693 173.645 641.62C201.673 657.548 237.306 647.738 253.233 619.711L284.848 564.077V628.066C284.848 660.303 310.981 686.437 343.218 686.437C375.455 686.437 401.589 660.303 401.589 628.066V564.077L433.204 619.711C449.131 647.738 484.763 657.548 512.791 641.62C540.819 625.693 550.628 590.06 534.701 562.033L498.725 498.725L562.033 534.701C590.06 550.628 625.693 540.819 641.62 512.791C657.548 484.763 647.738 449.131 619.711 433.203L564.077 401.589H628.066C660.303 401.589 686.437 375.455 686.437 343.218C686.437 310.981 660.303 284.848 628.066 284.848H564.077L619.711 253.233C647.738 237.306 657.548 201.673 641.62 173.645C625.693 145.618 590.06 135.808 562.033 151.736L498.725 187.711L534.701 124.404C550.628 96.376 540.819 60.7434 512.791 44.8161C484.763 28.8888 449.131 38.6981 433.204 66.7259L401.589 122.359V58.3704Z" fill="#10141D" fill-opacity="0.05"/>
</svg>
