<svg width="150" height="51" viewBox="0 0 150 51" fill="none" xmlns="http://www.w3.org/2000/svg">
<path d="M35.0176 27.2441C34.9953 23.1474 36.8425 20.0553 40.5812 17.7781C38.4893 14.7753 35.3291 13.1232 31.1564 12.7995C27.2062 12.487 22.8888 15.1102 21.3088 15.1102C19.6397 15.1102 15.8119 12.9112 12.8075 12.9112C6.59848 13.0116 0 17.8786 0 27.7799C0 30.7046 0.53411 33.726 1.60233 36.8441C3.02662 40.9408 8.16743 50.9873 13.5308 50.8198C16.3349 50.7529 18.3155 48.8217 21.9653 48.8217C25.5037 48.8217 27.3397 50.8198 30.4665 50.8198C35.8744 50.7417 40.5256 41.6106 41.8831 37.5027C34.6281 34.0757 35.0176 27.4562 35.0176 27.2441ZM28.7195 8.91489C31.7573 5.29816 31.4791 2.00515 31.3901 0.821899C28.7084 0.978178 25.6039 2.65259 23.8347 4.7177C21.8874 6.92792 20.7413 9.66279 20.9861 12.7437C23.8903 12.967 26.5386 11.4712 28.7195 8.91489Z" fill="white"/>
<path d="M58.5459 33.6671L55.6305 42.5403H51.8831L61.4248 14.3412H65.7978L75.3759 42.5403H71.5009L68.5005 33.6671H58.5459ZM67.7535 30.8191L65.0082 22.7021C64.3826 20.8604 63.9696 19.1894 63.5505 17.5551H63.4716C63.0525 19.226 62.597 20.9397 62.0564 22.6594L59.3112 30.813L67.7535 30.8191ZM78.2183 28.8981C78.2183 26.3063 78.1394 24.2084 78.0483 22.2874H81.3402L81.5102 25.7635H81.5892C83.0894 23.2937 85.4642 21.8301 88.7561 21.8301C93.6332 21.8301 97.2956 25.9709 97.2956 32.1242C97.2956 39.4057 92.88 42.9976 88.1305 42.9976C85.4642 42.9976 83.1319 41.8268 81.9232 39.8204H81.8443V50.8219H78.2183V28.8981ZM81.8382 34.2952C81.8382 34.8441 81.9172 35.338 82.0083 35.8015C82.6764 38.3507 84.8811 40.1131 87.511 40.1131C91.3859 40.1131 93.6392 36.9358 93.6392 32.2888C93.6392 28.2273 91.5135 24.7634 87.6385 24.7634C85.1423 24.7634 82.81 26.5624 82.0933 29.325C81.9657 29.7824 81.8443 30.3312 81.8443 30.8313L81.8382 34.2952ZM101.086 28.8981C101.086 26.3063 101.007 24.2084 100.915 22.2874H104.207L104.377 25.7635H104.456C105.957 23.2937 108.331 21.8301 111.623 21.8301C116.5 21.8301 120.163 25.9709 120.163 32.1242C120.163 39.4057 115.747 42.9976 110.998 42.9976C108.331 42.9976 105.999 41.8268 104.79 39.8204H104.711V50.8219H101.086V28.8981ZM104.711 34.2952C104.711 34.8441 104.79 35.338 104.882 35.8015C105.55 38.3507 107.754 40.1131 110.384 40.1131C114.259 40.1131 116.512 36.9358 116.512 32.2888C116.512 28.2273 114.387 24.7634 110.512 24.7634C108.015 24.7634 105.683 26.5624 104.967 29.325C104.839 29.7824 104.718 30.3312 104.718 30.8313L104.711 34.2952ZM123.959 12.8349H127.627V42.5342H123.959V12.8349ZM135.001 33.0816C135.08 38.0579 138.25 40.1131 141.912 40.1131C144.536 40.1131 146.121 39.6557 147.494 39.0703L148.12 41.7048C146.832 42.2902 144.621 42.9611 141.414 42.9611C135.207 42.9611 131.496 38.8629 131.496 32.7523C131.496 26.6417 135.08 21.8301 140.953 21.8301C147.537 21.8301 149.286 27.6418 149.286 31.368C149.286 32.1242 149.207 32.7035 149.158 33.0816H135.001ZM145.751 30.4471C145.793 28.1053 144.791 24.4646 140.667 24.4646C136.956 24.4646 135.335 27.898 135.043 30.4471H145.751Z" fill="white"/>
</svg>
