<svg width="150" height="62" viewBox="0 0 150 62" fill="none" xmlns="http://www.w3.org/2000/svg">
<g clip-path="url(#clip0_23_14)">
<path d="M138.781 43.1759C138.38 43.1759 138.103 42.8977 138.103 42.4976V22.6241H131.352C130.951 22.6241 130.674 22.3472 130.674 21.9466V19.2053C130.674 18.8039 130.951 18.5261 131.352 18.5261H149.323C149.724 18.5261 150 18.8042 150 19.2053V21.9465C150 22.3467 149.724 22.6241 149.323 22.6241H142.572V42.4973C142.572 42.8977 142.294 43.1759 141.894 43.1759H138.781ZM87.0647 33.2539L83.5206 23.0869L79.9448 33.2539H87.0647ZM94.925 42.3729C95.0799 42.7744 94.8328 43.1759 94.4012 43.1759H91.1961C90.7334 43.1759 90.4557 42.9608 90.3011 42.5275L88.4833 37.2913H78.528L76.707 42.5275C76.5541 42.961 76.2756 43.1759 75.8142 43.1759H72.7944C72.3931 43.1759 72.1153 42.7743 72.2696 42.3729L80.6227 19.1437C80.7773 18.7109 81.0546 18.5272 81.516 18.5272H85.6465C86.1093 18.5272 86.4176 18.711 86.5716 19.1437L94.925 42.3729ZM118.868 39.8476C120.84 39.8476 122.166 38.894 123.245 37.2603L118.253 31.8984C116.341 32.9777 115.107 34.0547 115.107 36.2121C115.107 38.3384 116.833 39.8476 118.868 39.8476ZM120.255 21.792C118.653 21.792 117.728 22.8098 117.728 24.1652C117.728 25.2127 118.282 26.1371 119.546 27.4932C121.734 26.2291 122.66 25.4592 122.66 24.1039C122.66 22.8396 121.858 21.792 120.255 21.792ZM133.911 42.313C134.311 42.7447 134.065 43.1759 133.571 43.1759H129.656C129.132 43.1759 128.855 43.052 128.516 42.651L126.174 40.064C124.602 42.1593 122.411 43.7303 118.775 43.7303C114.275 43.7303 110.729 41.0191 110.729 36.3674C110.729 32.7922 112.641 30.8814 115.539 29.2796C114.12 27.6467 113.474 25.9212 113.474 24.4122C113.474 20.5906 116.156 17.972 120.193 17.972C124.323 17.972 126.851 20.407 126.851 24.0112C126.851 27.0924 124.633 28.8163 122.289 30.1113L125.742 33.8407L127.683 30.4502C127.93 30.0502 128.207 29.8956 128.7 29.8956H131.689C132.183 29.8956 132.461 30.2354 132.153 30.7589L128.7 36.6738L133.911 42.313ZM103.15 43.1759C103.55 43.1759 103.829 42.8977 103.829 42.4976V22.6241H110.579C110.979 22.6241 111.256 22.3472 111.256 21.9466V19.2053C111.256 18.8039 110.979 18.5261 110.579 18.5261H92.6076C92.2063 18.5261 91.9295 18.8042 91.9295 19.2053V21.9465C91.9295 22.3467 92.2065 22.6241 92.6076 22.6241H99.357V42.4973C99.357 42.8977 99.6354 43.1759 100.036 43.1759H103.15Z" fill="white"/>
<path d="M11.926 55.1632C17.1535 59.2096 23.7148 61.6409 30.8336 61.6409C38.6239 61.6409 45.7259 58.7487 51.146 54.0011C51.2117 53.943 51.1793 53.9047 51.1145 53.943C48.6823 55.5674 41.7503 59.1131 30.8339 59.1131C21.3471 59.1131 15.3519 56.9964 11.9662 55.1067C11.9014 55.0748 11.8774 55.1233 11.926 55.1632ZM32.9266 56.7387C40.5143 56.7387 48.8522 54.6703 53.839 50.5761C55.2036 49.4606 56.5035 47.9759 57.6676 45.9805C58.3378 44.8325 58.9933 43.4685 59.5271 42.1277C59.5508 42.0623 59.5105 42.0306 59.4613 42.104C54.8239 48.9282 41.3952 53.1847 27.5292 53.1847C17.7283 53.1847 7.18262 50.0506 3.05391 44.0664C3.01327 44.011 2.97263 44.0347 2.99738 44.0983C6.84356 52.273 18.512 56.7387 32.9266 56.7387ZM24.6363 43.1773C8.85542 43.1773 1.4144 35.8276 0.064605 30.8121C0.0479594 30.7395 0.00012207 30.7554 0.00012207 30.8206C0.00012207 32.5091 0.169127 34.6881 0.4599 36.1344C0.598614 36.8385 1.17161 37.9434 2.01169 38.824C5.83298 42.807 15.36 48.3881 31.8592 48.3881C54.3387 48.3881 59.4786 40.9002 60.5281 38.4378C61.2787 36.6767 61.6675 33.4942 61.6675 30.8208C61.6675 30.1738 61.6513 29.6571 61.6269 29.1498C61.6269 29.0675 61.5792 29.0607 61.5627 29.1409C60.4394 35.1663 41.2332 43.1773 24.6363 43.1773ZM2.97263 17.5987C2.06837 19.3932 1.06604 22.4207 0.768069 23.9876C0.637453 24.6589 0.693088 24.9813 0.928526 25.4823C2.81997 29.4953 12.3873 35.9161 34.7041 35.9161C48.319 35.9161 58.8954 32.5713 60.6088 26.4677C60.9243 25.3441 60.9413 24.1578 60.5359 22.5592C60.083 20.773 59.2349 18.6899 58.517 17.2273C58.4933 17.1796 58.4515 17.1866 58.46 17.243C58.7267 25.2485 36.401 30.4081 25.1365 30.4081C12.9349 30.4081 2.75549 25.5468 2.75549 19.4085C2.75549 18.8187 2.87756 18.2288 3.02992 17.6149C3.04521 17.5588 2.99723 17.5495 2.97263 17.5987ZM51.196 7.76955C51.3255 7.97259 51.3902 8.18928 51.3902 8.48094C51.3902 11.9053 40.9093 17.9632 24.2252 17.9632C11.9662 17.9632 9.67106 13.4157 9.67106 10.5236C9.67106 9.48984 10.0676 8.43205 10.9408 7.35777C10.9885 7.29389 10.948 7.2693 10.8929 7.31683C9.30036 8.66643 7.83705 10.185 6.55339 11.8244C5.94005 12.5996 5.5593 13.2864 5.5593 13.6979C5.5593 19.6912 20.5877 24.0366 34.6397 24.0366C49.6124 24.0366 56.2946 19.1489 56.2946 14.8536C56.2946 13.3185 55.697 12.4224 54.1683 10.685C53.176 9.55477 52.2374 8.63449 51.2439 7.72861C51.196 7.68902 51.1625 7.72126 51.196 7.76955ZM46.6058 4.34591C41.9849 1.57622 36.6189 0.000488281 30.8339 0.000488281C25.0085 0.000488281 19.4809 1.63126 14.8433 4.47427C13.4523 5.33037 12.6694 6.01642 12.6694 6.89831C12.6694 9.49794 18.745 12.2931 29.524 12.2931C40.1911 12.2931 48.4647 9.23147 48.4647 6.28439C48.4647 5.58094 47.8499 5.08879 46.6058 4.34591Z" fill="white"/>
</g>
<defs>
<clipPath id="clip0_23_14">
<rect width="150" height="61.6438" fill="white"/>
</clipPath>
</defs>
</svg>
