  <svg
              class="shrink-0 size-10 mb-3"
              width="123"
              height="147"
              viewBox="0 0 123 147"
              fill="none"
              xmlns="http://www.w3.org/2000/svg"
            >
              <path
                d="M0.828012 1.46997H121.918V47.216C121.918 68.122 114.052 112.626 61.889 145.746C61.889 145.746 5.17201 122.149 0.825012 47.216L0.828012 1.46997Z"
                fill="#A51C30"
              />
              <path
                d="M40.645 73.64C40.341 73.6276 40.0772 73.7793 39.8647 73.9634C39.4506 74.3223 39.2026 74.8184 39.1896 74.8447C38.7276 75.4914 37.7556 75.6543 36.873 75.6291C35.9904 75.6039 35.2316 75.4026 35.2316 75.4026L35.183 75.3902L35.1345 75.4068C33.8657 75.8298 33.3009 76.3694 33.0686 76.8339C32.9525 77.0662 32.9231 77.2762 32.9231 77.4282C32.9231 77.5475 32.9382 77.6001 32.9473 77.6344V82.3767C32.9011 82.6382 32.78 82.7982 32.6118 82.9104C32.4411 83.0242 32.2137 83.0845 31.9851 83.1085C31.5281 83.1565 31.0836 83.0601 31.0836 83.0601H31.0795C29.4879 82.7418 28.3965 83.1147 27.7158 83.5776C27.0462 84.0329 26.7788 84.5624 26.7698 84.5802C26.0889 85.5017 26.5393 86.7957 26.5393 86.7957V86.8037C26.5834 86.9212 26.6346 87.0327 26.6929 87.1352C26.6936 87.1372 26.701 87.1594 26.701 87.1594C27.322 88.8154 29.5997 88.8129 29.5997 88.8129C30.4277 89.4339 31.8758 89.019 31.8758 89.019C32.3013 89.019 32.5486 89.1958 32.7006 89.4193C32.7761 89.7244 32.741 90.0298 32.741 90.0298L32.7369 90.0662L32.745 90.0985C32.7589 90.1536 32.7876 90.4408 32.8016 90.8343C32.8157 91.2277 32.8211 91.7456 32.8259 92.3463C32.8356 93.5477 32.8307 95.0749 32.8178 96.5751C32.7919 99.5755 32.741 102.474 32.741 102.474C32.741 103.486 32.5429 104.079 32.5429 104.079L32.5348 104.103V104.131C32.5348 104.181 32.5182 104.207 32.462 104.252C32.4058 104.297 32.3069 104.346 32.1749 104.382C31.9111 104.452 31.5327 104.479 31.1521 104.479C30.391 104.479 29.6199 104.378 29.6199 104.378L29.5997 104.374L29.5794 104.378C27.4239 104.593 26.7565 106.528 26.7494 106.549V106.553C26.5785 106.954 26.5934 107.362 26.7089 107.729C26.7669 107.914 26.8511 108.09 26.9475 108.255C27.3322 109.194 28.3585 109.928 28.3585 109.928C28.3585 110.342 32.2922 110.547 32.2922 110.547C32.5306 110.607 32.6928 110.774 32.8137 110.976C32.8257 111.012 32.8402 111.048 32.8501 111.085C32.9468 111.447 32.9471 111.788 32.9471 111.788C32.9176 111.899 32.9063 112.022 32.8986 112.201C32.8899 112.402 32.8855 112.65 32.8905 112.928C32.9002 113.485 32.9325 114.167 32.9713 114.828C33.0491 116.151 33.1533 117.392 33.1533 117.392L33.1574 117.4V117.408C33.1794 117.54 33.2436 117.654 33.3231 117.755C33.3232 117.756 33.3272 117.792 33.3272 117.792C33.5342 119.034 37.4671 118.621 37.4671 118.621C37.4671 118.621 51.2521 118.302 54.9771 118.362C55.5092 118.37 55.835 118.388 55.8868 118.414C56.3008 118.414 57.3382 118.208 57.3382 118.208L58.7855 119.243C59.3676 119.696 59.9708 119.825 60.5239 119.789C60.6345 119.783 60.7452 119.768 60.8513 119.749C61.9126 119.556 62.7191 118.827 62.7191 118.827L64.7891 118.414C65.2031 118.414 81.9711 118.208 81.9711 118.208C83.4201 118.622 84.0411 117.998 84.0411 117.998L86.7296 117.792C86.8331 117.792 86.9298 117.784 87.0207 117.768C87.6783 117.647 88.0167 117.121 88.1931 116.607C88.2457 116.505 88.301 116.404 88.3387 116.3C88.5581 115.697 88.5529 115.103 88.5529 115.103V111.602C88.5875 111.325 88.6515 111.109 88.7227 110.915C89.1 110.25 89.6283 110.135 89.6283 110.135L92.1106 109.718L93.3558 109.1C93.8335 108.98 94.0853 108.646 94.2291 108.243C94.2659 108.185 94.3052 108.131 94.3342 108.069C94.5058 107.704 94.5566 107.279 94.5566 106.876C94.5566 106.07 94.3423 105.328 94.3423 105.328L94.3383 105.311L94.3343 105.295C93.8811 104.388 92.8357 104.019 91.9328 103.86C91.0299 103.7 90.2348 103.754 90.2348 103.754H90.2308C89.2343 103.854 88.8583 103.569 88.6864 103.289C88.5145 103.01 88.553 102.707 88.553 102.707V102.695L88.7632 89.8669C88.8449 89.386 88.9847 89.0031 89.123 88.6904C89.2849 88.3807 89.4222 88.1931 89.4222 88.1931C90.0432 88.4001 92.1107 87.7767 92.1107 87.7767C93.3003 87.6577 93.7957 86.9283 94.0109 86.3253C94.0299 86.2901 94.0589 86.2551 94.0756 86.2201C94.3484 85.6473 94.3465 85.1197 94.3465 85.1043C94.457 84.2926 93.8925 83.6218 93.3317 83.1678C92.7686 82.712 92.1795 82.4482 92.1795 82.4482L92.1471 82.4316H89.2403C89.1597 82.415 89.0943 82.3724 89.026 82.2819C88.9562 82.1896 88.8896 82.0526 88.84 81.8857C88.7408 81.5521 88.6951 81.1015 88.6824 80.6567C88.657 79.7672 88.7592 78.8981 88.7592 78.8981L88.7632 78.8857V77.2212C88.7632 76.4159 88.1882 75.8505 87.6474 75.4989C87.1066 75.1473 86.572 74.9896 86.572 74.9896L86.5477 74.9816H82.8566C82.7731 74.8433 82.6801 74.7075 82.5412 74.6177C82.3577 74.4989 82.1455 74.4103 81.9429 74.3428C81.5376 74.2076 81.1626 74.1569 81.1626 74.1569C80.4878 73.9449 79.4848 73.9467 79.4848 73.9467H79.4322L79.3877 73.9751C78.099 74.8673 75.838 75.2413 73.9096 75.3699C71.9812 75.4984 70.3883 75.3983 70.3883 75.3983L63.8954 74.9778L63.8388 75.0304C63.8579 75.0118 63.8167 75.0449 63.7499 75.0668C63.683 75.0892 63.587 75.1161 63.479 75.1397C63.263 75.1867 62.9884 75.2306 62.7189 75.2691C62.1801 75.3461 61.6637 75.3985 61.6637 75.3985L61.5586 75.4065L61.5222 75.5116C61.3439 76.0467 60.8026 76.2312 60.8026 76.2312L60.2326 76.4252C59.8543 76.1038 59.2643 75.8598 58.7044 75.6894C58.1135 75.5095 57.623 75.4109 57.6007 75.4064C57.5966 75.4044 57.5924 75.4004 57.5885 75.3984C57.5688 75.3904 57.549 75.386 57.5319 75.3818C57.4976 75.3738 57.465 75.3694 57.4227 75.3652C57.3381 75.3572 57.2292 75.3549 57.0953 75.3528C56.8273 75.3508 56.461 75.3588 56.0279 75.3735C55.1618 75.4027 54.0291 75.4584 52.9029 75.5232C50.6525 75.6525 48.4313 75.8099 48.4273 75.8102C45.861 75.9129 44.1277 75.5011 43.0382 75.0704C41.9487 74.6396 41.5182 74.2052 41.5182 74.2052C41.2448 73.8319 40.943 73.6519 40.645 73.64ZM40.6328 73.9796C40.8139 73.9876 41.0236 74.0884 41.2635 74.4243L41.2676 74.4323L41.2757 74.4447C41.2757 74.4447 41.7774 74.9377 42.9131 75.3867C44.0487 75.8356 45.8311 76.2551 48.4397 76.1508H48.4519C48.4519 76.1508 50.6736 75.993 52.9233 75.8637C54.0481 75.7991 55.1794 75.7433 56.0404 75.7141C56.4708 75.6996 56.8372 75.6915 57.0956 75.6934C57.2248 75.6944 57.3263 75.6994 57.3948 75.7058C57.4234 75.7078 57.4419 75.7118 57.4554 75.7138L57.4635 75.7218L57.512 75.7342C57.512 75.7342 58.0256 75.8348 58.6117 76.0131C59.1978 76.1916 59.8625 76.4635 60.1197 76.7206L60.1925 76.7935L60.9121 76.555C60.9121 76.555 61.3538 76.2961 61.652 75.8475C61.4215 76.4077 60.8555 76.5995 60.8555 76.5995L60.237 77.0159C59.616 76.3949 57.5444 75.9809 57.5444 75.9809C57.3374 75.7739 48.4358 76.3933 48.4358 76.3933C43.2609 76.6003 41.3972 74.7398 41.3972 74.7398C40.3622 73.2908 39.3272 75.3583 39.3272 75.3583C38.2922 76.8073 35.1873 75.9809 35.1873 75.9809C34.0417 76.3628 33.5289 76.8306 33.2912 77.2261C33.3073 77.1539 33.3321 77.0754 33.3761 76.9876C33.5557 76.6284 34.0392 76.1448 35.2237 75.7424C35.2901 75.759 35.982 75.9434 36.8691 75.9688C37.7977 75.9953 38.8956 75.8452 39.4687 75.043L39.4768 75.035L39.4849 75.0226C39.4849 75.0226 39.736 74.5225 40.0873 74.2181C40.2629 74.0659 40.4516 73.9723 40.6328 73.9796ZM79.5338 74.2909C79.6073 74.2917 80.5446 74.3033 81.0903 74.4848L81.1064 74.4888L81.1186 74.4928C81.1186 74.4928 81.4713 74.5431 81.8423 74.6667C82.0277 74.7286 82.2174 74.8064 82.3638 74.9012C82.3873 74.9157 82.3996 74.9339 82.4204 74.9496C81.9234 74.6436 81.1429 74.5291 81.1429 74.5291C80.5219 74.3221 79.4853 74.323 79.4853 74.323C76.7944 76.186 70.3767 75.7744 70.3767 75.7744L63.9607 75.358C63.7561 75.5625 61.7554 75.7657 61.7088 75.7703C61.7175 75.7558 61.7289 75.7448 61.7371 75.7299C61.7672 75.7279 62.2408 75.6804 62.7721 75.6045C63.046 75.5654 63.3261 75.5211 63.5564 75.4712C63.6716 75.4462 63.7737 75.419 63.8596 75.3903C63.9079 75.3737 63.9447 75.3462 63.985 75.3257L70.3687 75.734C70.3687 75.734 71.9858 75.84 73.9386 75.7098C75.8685 75.5811 78.1276 75.2359 79.5338 74.2909ZM82.7762 75.3218H86.4956C86.5076 75.3258 86.8033 75.4391 87.1465 75.6169C86.7995 75.4436 86.5239 75.3581 86.5239 75.3581H82.7964C82.7924 75.3457 82.7816 75.3344 82.7762 75.3218ZM87.2153 75.6533C87.3041 75.7013 87.3771 75.7264 87.47 75.7866C87.4955 75.8032 87.5175 75.8259 87.5428 75.8431C87.431 75.7713 87.3213 75.7085 87.2153 75.6533ZM88.6909 82.3685C88.714 82.4076 88.7329 82.4503 88.7596 82.4856C88.8653 82.6254 89.0083 82.7335 89.1841 82.7686L89.2002 82.7726H92.0706C92.095 82.7829 92.6101 83.0215 93.1217 83.4357C93.4803 83.726 93.7957 84.0895 93.9383 84.4909C93.5678 83.8953 92.8844 83.4389 92.4668 83.2012C92.2565 83.0815 92.111 83.0192 92.111 83.0192H89.2163C88.9628 82.9685 88.7979 82.7161 88.6909 82.3685ZM33.0169 82.9992C32.4964 83.984 31.048 83.6379 31.048 83.6379C27.9431 83.0169 26.9081 85.0893 26.9081 85.0893C26.8798 85.127 26.8635 85.1673 26.8394 85.2065C26.8864 85.0544 26.9501 84.9066 27.0496 84.7739L27.0658 84.7491C27.0658 84.7491 27.3017 84.2725 27.9148 83.8556C28.5271 83.4393 29.5056 83.0901 31.0157 83.3907C31.0157 83.3907 31.5003 83.4988 32.0264 83.4433C32.2895 83.4156 32.5698 83.3506 32.8067 83.1927C32.8849 83.1405 32.9526 83.0729 33.0169 82.9992ZM88.4249 103.492C88.6751 103.873 89.2198 104.198 90.2644 104.095C90.2644 104.095 91.025 104.044 91.8816 104.196C92.7362 104.346 93.652 104.699 94.0284 105.445C94.0294 105.449 94.0521 105.553 94.0607 105.586C93.0899 104.152 90.2523 104.337 90.2523 104.337C88.899 104.473 88.5259 103.905 88.4249 103.492ZM32.7259 104.466C32.723 104.477 32.7056 104.543 32.7056 104.543C32.7056 104.647 32.6571 104.734 32.5722 104.802C32.4873 104.87 32.366 104.921 32.2205 104.96C31.3472 105.193 29.6007 104.96 29.6007 104.96C28.1023 105.11 27.3679 106.119 27.0739 106.67C27.0739 106.67 27.6496 104.918 29.6169 104.717C29.6519 104.721 30.3842 104.818 31.1572 104.818C31.5528 104.818 31.9466 104.794 32.2649 104.709C32.424 104.667 32.5676 104.61 32.6813 104.519C32.6991 104.505 32.71 104.483 32.7259 104.466ZM47.1469 16.1825L47.0862 16.2351C43.8559 18.8597 39.1622 17.6501 39.1622 17.6501L39.1419 17.6461H39.1217C34.5627 17.6461 33.0938 17.8523 33.0938 17.8523L33.0291 17.8647L32.9886 17.9131C32.5175 18.4785 31.9399 18.4705 31.4321 18.3254C30.9364 18.1837 30.5606 17.9062 30.5427 17.8928C30.4494 17.7566 30.3003 17.6791 30.1384 17.622C29.9551 17.5572 29.745 17.5193 29.5441 17.4926C29.1423 17.439 28.7719 17.4361 28.7719 17.4361H28.7638L28.7597 17.4401C24.217 17.7498 21.3844 17.4898 19.6956 17.1571C18.8512 16.9909 18.2934 16.8047 17.9491 16.6639C17.6048 16.5229 17.4842 16.4334 17.4842 16.4334L17.5045 16.4541C17.4386 16.3883 17.3754 16.3643 17.2983 16.3409C17.2212 16.3175 17.1325 16.2997 17.0355 16.2844C16.8415 16.2538 16.6117 16.2368 16.3887 16.2237C15.9426 16.1968 15.5235 16.1953 15.5235 16.1953H15.4184L15.3699 16.2882C15.1898 16.6482 14.6317 17.4037 14.5896 17.4606C14.5645 17.4686 14.5088 17.4854 14.4077 17.497C14.2909 17.5094 14.1387 17.5206 13.967 17.5254C13.6236 17.5357 13.1986 17.5294 12.7865 17.5174C11.9623 17.4917 11.1896 17.4406 11.1896 17.4406L11.1815 17.4366H11.1774C10.314 17.4366 9.79439 17.7159 9.50369 18.0066C9.21294 18.2974 9.14792 18.609 9.14792 18.609L9.14382 18.6214L8.93763 22.5794V22.5918C9.04003 23.8205 8.91606 24.3178 8.83252 24.4515C8.79075 24.5184 8.78976 24.5041 8.78806 24.5041L8.64656 24.4112L8.54954 24.5528C8.49553 24.6337 8.28926 24.7432 7.99567 24.8075C7.70207 24.8717 7.33724 24.904 6.98087 24.9166C6.2682 24.9421 5.60227 24.8924 5.60227 24.8924L5.58612 24.8884L5.56997 24.8924C5.00761 24.9487 4.58676 25.2239 4.29247 25.5918C3.99813 25.9597 3.82156 26.4149 3.71434 26.8572C3.4999 27.7418 3.55667 28.5916 3.55667 28.5916V28.612C3.66903 29.1738 3.98934 29.5681 4.3895 29.8208C4.78966 30.0735 5.26786 30.1957 5.7236 30.2493C6.61004 30.3536 7.3889 30.205 7.4337 30.1967H7.4378C8.5397 30.2982 8.9399 30.6387 9.0873 30.9123C9.23495 31.1865 9.15199 31.4258 9.15199 31.4258L9.14389 31.45V31.4784C9.14389 31.9065 9.19725 35.3102 9.249 38.6222C9.30056 41.9219 9.34968 45.0954 9.35008 45.1191C9.30084 45.5622 9.18202 45.8406 9.04282 46.0125C8.90362 46.1846 8.7447 46.2589 8.58193 46.2915C8.25641 46.3567 7.93103 46.2269 7.93103 46.2269L7.89868 46.2103H7.86633C5.55083 46.2103 4.48613 47.0185 4.04173 47.8517C3.59944 48.681 3.76524 49.5015 3.76681 49.5093C3.88039 51.0121 4.82761 51.7052 5.71951 51.9754C6.61453 52.2466 7.47011 52.1371 7.47011 52.1371L7.44983 52.1411C8.55743 52.1411 9.01143 52.4335 9.20443 52.6909C9.39747 52.9483 9.35403 53.1841 9.35403 53.1841L9.34593 53.2367L9.37019 53.2893C9.36319 53.2748 9.39441 53.3949 9.40252 53.5521C9.41062 53.7092 9.41535 53.9183 9.41062 54.1585C9.40112 54.639 9.36848 55.2466 9.32977 55.8403C9.25233 57.0278 9.14784 58.165 9.14784 58.165V58.1857L9.15194 58.2099C9.36833 59.4 10.0566 59.8884 10.6761 60.0292C11.2502 60.1596 11.7233 60.0252 11.796 60.005H11.8041L28.3271 60.4215C30.686 62.1399 32.2093 62.1894 33.1219 61.7193C33.9954 61.2693 34.2248 60.4659 34.2539 60.373L34.541 60.4175C34.7256 60.4483 35.0872 60.4639 35.6164 60.4782C36.1456 60.4927 36.8318 60.5016 37.6217 60.5065C39.2014 60.5169 41.1936 60.5105 43.1604 60.4985C45.1272 60.4861 47.0705 60.4662 48.5455 60.4501C50.0136 60.4335 51.0192 60.4219 51.1168 60.4217H51.129C51.8076 60.5726 52.3376 60.5384 52.7461 60.3813C53.1622 60.2213 53.444 59.9377 53.6274 59.6414C53.9921 59.0524 53.9913 58.404 53.9913 58.3962V58.3882L54.1975 53.4559C54.2816 53.1318 54.6335 52.8942 54.998 52.7484C55.3507 52.6072 55.669 52.5619 55.6934 52.5584C57.9913 52.8621 59.1177 52.0516 59.6108 51.1474C60.1045 50.2424 59.9958 49.2755 59.9949 49.2675V49.2635C59.8856 47.7572 58.9929 47.0139 58.1514 46.6882C57.309 46.3621 56.5019 46.4213 56.5019 46.4213L56.5141 46.4173C55.4168 46.4173 54.9131 46.0358 54.6584 45.6654C54.405 45.2967 54.4037 44.9412 54.4037 44.9376V44.9336C54.4611 44.5738 54.4962 43.6817 54.525 42.4715C54.5541 41.2474 54.5727 39.7341 54.5857 38.2588C54.6115 35.3082 54.614 32.5139 54.614 32.5139C54.614 32.26 54.758 31.8508 54.9091 31.5235C55.0413 31.237 55.1409 31.0707 55.1719 31.0181C56.4468 31.1479 57.4207 31.0717 58.103 30.8281C58.8154 30.5736 59.254 30.1581 59.5059 29.7244C60.004 28.8666 59.7817 27.9623 59.7767 27.9415C59.8712 27.1639 59.7544 26.5758 59.4816 26.1667C59.2026 25.7481 58.7878 25.5146 58.3739 25.3904C57.5713 25.1497 56.7705 25.296 56.7204 25.3055C55.3038 25.3055 54.818 24.9129 54.6464 24.5697C54.4749 24.2251 54.602 23.8769 54.602 23.8769L54.6061 23.8604L54.6102 23.8438C54.9235 21.8598 54.8204 20.4914 54.6345 19.615C54.4486 18.7385 54.1655 18.3374 54.1655 18.3374L54.1494 18.3132L54.1211 18.2925C53.9097 18.1515 53.6048 18.0979 53.2357 18.058C52.8666 18.018 52.4397 18.0054 52.035 18.0054C51.2256 18.0054 50.4987 18.058 50.4987 18.058L50.4461 18.062L50.4097 18.0903C50.2616 18.2014 50.1013 18.189 49.8801 18.0779C49.659 17.9674 49.4102 17.7539 49.1847 17.5159C48.7338 17.0399 48.3762 16.4809 48.3762 16.4809L48.3357 16.4202L47.1469 16.1825ZM105.728 16.1825L105.667 16.2351C102.437 18.8597 97.7433 17.6501 97.7433 17.6501L97.723 17.6461H97.6987C93.3464 17.6461 91.881 17.8523 91.881 17.8523L91.8163 17.8647L91.7759 17.9131C91.3047 18.4785 90.7272 18.4705 90.2194 18.3254C89.7309 18.1859 89.3626 17.9178 89.334 17.8969C89.241 17.7576 89.0895 17.6798 88.9257 17.622C88.7423 17.5572 88.5323 17.5193 88.3314 17.4926C87.9295 17.439 87.5592 17.4361 87.5592 17.4361H87.5512L87.5472 17.4401C83.0045 17.7498 80.1719 17.4898 78.4831 17.1571C77.6387 16.9909 77.0809 16.8047 76.7366 16.6639C76.3922 16.5229 76.2717 16.4334 76.2717 16.4334L76.2919 16.4541C76.226 16.3883 76.1588 16.3643 76.0817 16.3409C76.0046 16.3175 75.92 16.2997 75.823 16.2844C75.6289 16.2538 75.3951 16.2368 75.1721 16.2237C74.726 16.1974 74.3109 16.1953 74.3109 16.1953H74.2058L74.1573 16.2882C73.9769 16.6491 73.4126 17.4112 73.373 17.4647C73.3461 17.4727 73.29 17.4858 73.1911 17.497C73.0743 17.5094 72.9261 17.5206 72.7544 17.5254C72.4111 17.5357 71.986 17.5294 71.5739 17.5174C70.7497 17.4917 69.9729 17.4406 69.9729 17.4406L69.9688 17.4366H69.9647C69.0018 17.4366 68.4358 17.7088 68.1171 17.9985C67.7984 18.2883 67.725 18.609 67.725 18.609V22.7977C67.8272 23.9219 67.6982 24.3675 67.6239 24.4714C67.5868 24.5234 67.5901 24.5041 67.5835 24.5037C67.5769 24.5033 67.5713 24.5037 67.5713 24.5037L67.4338 24.4108L67.3368 24.5524C67.2828 24.6333 67.0765 24.7428 66.7829 24.8071C66.4893 24.8713 66.1204 24.9036 65.7641 24.9162C65.0514 24.9417 64.3855 24.892 64.3855 24.892L64.3733 24.888L64.3571 24.892C63.747 24.9475 63.2874 25.2163 62.9623 25.5833C62.6373 25.9503 62.4405 26.4093 62.3195 26.8528C62.0776 27.7397 62.1336 28.5912 62.1336 28.5912V28.5992L62.1377 28.6116C62.25 29.1734 62.5703 29.5677 62.9705 29.8204C63.3706 30.0731 63.8448 30.1953 64.3006 30.2489C65.1871 30.3533 65.97 30.2046 66.0148 30.1963H66.0189C67.1208 30.2978 67.517 30.6383 67.6643 30.9119C67.8119 31.1861 67.733 31.4254 67.733 31.4254L67.7289 31.4294V31.4374C67.6897 31.5941 67.6785 31.8617 67.6642 32.2945C67.6499 32.7272 67.6408 33.2996 67.6359 33.9602C67.6262 35.2814 67.6311 36.9652 67.644 38.6216C67.6698 41.9221 67.7245 45.0948 67.7249 45.1185C67.6756 45.5616 67.5528 45.84 67.4136 46.012C67.2744 46.184 67.1155 46.2583 66.9527 46.2909C66.6272 46.3561 66.3058 46.2263 66.3058 46.2263L66.2735 46.2097H66.2371C63.9216 46.2097 62.8569 47.0179 62.4125 47.8511C61.9702 48.6804 62.136 49.5009 62.1376 49.5087C62.2512 51.0115 63.1984 51.7046 64.0903 51.9748C64.9853 52.246 65.8449 52.1365 65.8449 52.1365L65.8246 52.1405C66.8256 52.1405 67.2793 52.4306 67.5024 52.6984C67.7255 52.9661 67.7247 53.2118 67.7247 53.2118V53.2522L67.7409 53.2886C67.7339 53.2741 67.7651 53.3942 67.7732 53.5514C67.7813 53.7085 67.7821 53.9176 67.7773 54.1578C67.7678 54.6383 67.7352 55.2459 67.6965 55.8396C67.619 57.0271 67.5186 58.1643 67.5186 58.1643L67.5145 58.185L67.5186 58.2092C67.735 59.3993 68.4273 59.8877 69.0468 60.0285C69.6204 60.1589 70.0933 60.0295 70.1667 60.0078H70.1748L86.6978 60.4243C89.0567 62.1427 90.576 62.1922 91.4886 61.7221C92.3686 61.2687 92.6516 60.4091 92.6772 60.3273L92.6812 60.3233C92.7556 60.1807 92.9137 60.1131 92.9925 60.1131C93.0324 60.1131 93.0289 60.1211 93.0208 60.1091C93.0128 60.0967 93.0288 60.1051 92.9925 60.1778L92.8914 60.3839L93.1178 60.4203C93.3025 60.4511 93.664 60.4667 94.1932 60.481C94.7224 60.4955 95.4086 60.5044 96.1985 60.5094C97.7782 60.5198 99.7704 60.5134 101.737 60.5014C103.704 60.489 105.643 60.4691 107.118 60.453C108.593 60.4364 109.616 60.4246 109.706 60.4246C110.433 60.5751 110.989 60.5374 111.408 60.3801C111.834 60.2203 112.114 59.9356 112.285 59.6362C112.627 59.0374 112.564 58.3708 112.564 58.3708L112.568 58.395L112.774 53.4546C112.858 53.1305 113.206 52.8929 113.571 52.7471C113.927 52.6047 114.251 52.5639 114.27 52.5613C116.568 52.8651 117.694 52.0504 118.188 51.1463C118.681 50.2413 118.569 49.2784 118.568 49.2704V49.2624C118.458 47.7561 117.57 47.0128 116.728 46.6871C115.886 46.361 115.075 46.4202 115.075 46.4202L115.091 46.4162C113.887 46.4162 113.393 46.0305 113.166 45.6683C112.94 45.306 112.984 44.9527 112.984 44.9527V44.9323C112.984 43.7092 113.191 32.5163 113.191 32.5163V32.5123C113.191 32.2584 113.335 31.8491 113.486 31.5218C113.618 31.2353 113.722 31.0689 113.753 31.0164C115.027 31.1462 116.001 31.07 116.684 30.8264C117.396 30.572 117.835 30.1565 118.087 29.7227C118.585 28.8649 118.362 27.9606 118.357 27.9398C118.452 27.1623 118.331 26.5741 118.058 26.165C117.779 25.7465 117.364 25.513 116.95 25.3888C116.145 25.1471 115.341 25.2957 115.297 25.3039C113.88 25.3039 113.399 24.9112 113.227 24.5681C113.055 24.2249 113.182 23.8768 113.182 23.8768L113.19 23.8436C113.504 21.8596 113.401 20.4912 113.215 19.6148C113.029 18.7383 112.746 18.3372 112.746 18.3372L112.725 18.313L112.701 18.2923C112.49 18.1513 112.185 18.0977 111.816 18.0578C111.447 18.0178 111.02 18.0052 110.615 18.0052C109.806 18.0052 109.075 18.0578 109.075 18.0578L109.026 18.0618L108.986 18.0902C108.838 18.2013 108.681 18.1889 108.46 18.0778C108.239 17.9672 107.986 17.7538 107.761 17.5158C107.31 17.0398 106.956 16.4808 106.956 16.4808L106.916 16.4201L105.728 16.1825Z"
                fill="black"
              />
              <path
                d="M61.685 146.36L61.271 146.153C60.857 145.946 4.347 121.521 0 47.209V0.63501H122.54V47.002C122.54 65.218 116.744 111.584 62.097 145.946L61.685 146.36ZM1.44899 2.08001V46.998C5.58889 117.376 56.924 142.63 61.685 144.7C115.297 110.546 121.093 65.007 121.093 46.998V2.08001H1.44899Z"
                fill="black"
              />
              <path
                d="M18.215 18.03C18.215 18.03 16.973 18.0308 17.18 18.8587L16.7676 50.3207C16.7676 50.3207 16.7668 51.7713 19.0437 51.9783C19.0437 51.9783 21.94 52.1853 22.561 51.9783H29.1873C29.1873 51.9783 30.4285 53.2171 30.4285 51.7681C30.4285 51.7681 31.2549 26.3111 30.8409 20.9291C30.8409 20.9291 30.8401 18.6489 28.9771 18.6489C28.9771 18.6489 21.5285 19.2699 20.9075 18.6489L18.215 18.03ZM46.948 18.0784C46.6751 18.0542 46.2356 18.1318 45.537 18.4422C45.537 18.4422 45.7472 19.2726 36.4325 18.8586C36.2255 18.8586 32.7058 18.8566 32.4988 20.306C32.4988 20.306 32.2926 35.21 32.2926 35.624L32.0824 48.044L31.8762 52.3901C31.8762 52.3901 32.4972 53.2173 32.9112 52.5963C32.9112 52.5963 36.0161 51.7699 38.0861 52.1839C38.0861 52.1839 44.2984 52.8025 45.7473 51.7675C45.7473 51.7675 46.7815 52.1815 46.9885 50.7325C46.9885 50.7325 47.4017 23.2025 47.1947 22.7885C47.1947 22.7885 47.6079 18.8564 47.4009 18.4424C47.4009 18.4424 47.4028 18.1188 46.948 18.0784ZM12.822 18.8506C12.4157 18.863 11.8242 19.1174 10.9704 19.8936L10.7642 24.0335C10.7642 24.0335 10.7642 26.3104 8.6942 26.1035C8.6942 26.1035 6.4148 26.1035 5.1729 27.1385C5.1729 27.1385 4.55353 29.2052 6.8305 28.9982C6.8305 28.9982 10.351 29.0002 10.558 30.4496L10.3478 45.3516C10.3478 45.3516 11.179 47.838 8.48807 47.838C8.48807 47.838 5.17287 47.6277 5.17287 49.6977C5.17287 49.6977 5.79628 51.3569 8.69417 50.9429C8.69417 50.9429 10.765 51.356 10.558 53.219V56.9425C10.558 56.9425 10.3477 58.3931 12.4177 58.6001H27.7357C27.7357 58.6001 28.5645 58.5993 28.5645 57.7713C28.5645 57.7713 28.5653 56.9425 27.3233 56.9425L14.6973 56.5302C14.6973 56.5302 12.6241 57.1528 12.4171 54.0479C12.4171 54.0479 12.6175 27.4679 12.6233 26.2979C12.6234 26.2984 12.6274 26.3103 12.6274 26.3103C12.6274 26.3103 12.6239 26.2126 12.6233 26.2012C12.6233 26.1908 12.6274 25.8985 12.6274 25.8939C12.6235 25.8859 12.6231 25.8859 12.6193 25.8773C12.5973 24.86 12.5934 21.259 13.6624 19.4774C13.6624 19.4774 13.4992 18.8303 12.822 18.8506ZM52.018 18.9274C51.1298 19.0042 51.1286 20.0998 51.1286 20.0998C51.5426 20.5138 51.7471 21.9636 51.7471 21.9636C51.9541 25.2755 51.7471 29.0006 51.7471 32.5196C51.5401 44.3186 51.1286 55.0826 51.1286 55.0826C51.1286 57.3595 49.8874 56.7361 49.8874 56.7361H36.2224C34.7734 56.7361 34.7751 57.5649 34.7751 57.5649C34.9821 58.8069 36.2224 58.3936 36.2224 58.3936C37.4644 58.6006 51.1284 58.3936 51.1284 58.3936C53.1983 58.6006 52.9922 55.9072 52.9922 55.9072C53.1992 51.1463 53.6107 50.7323 53.6107 50.7323C54.0247 50.5254 56.3033 50.5262 56.3033 50.5262C60.0292 50.7332 58.3733 48.2501 58.3733 48.2501C57.9593 47.6291 55.4746 47.6275 55.4746 47.6275C53.1977 47.8345 53.4046 45.3514 53.4046 45.3514L53.6108 31.0684C53.1968 29.8264 54.2334 29.2087 54.2334 29.2087H56.5095C59.6144 29.4157 58.7856 27.3449 58.7856 27.3449C58.7856 26.3099 56.0971 25.8935 56.0971 25.8935C53.6132 26.3075 53.8169 24.8585 53.8169 24.8585V21.3413C54.2309 19.0643 52.7819 19.0652 52.7819 19.0652C52.4714 18.9489 52.223 18.9096 52.018 18.9274ZM49.095 19.3883C48.8309 19.4237 48.5403 19.6341 48.2298 20.0998V51.1488C48.2298 51.1488 49.0578 53.8381 50.2998 53.6311C50.2998 53.6311 50.506 53.0125 50.506 51.9776L50.9224 22.3756C50.9224 22.3756 50.2395 19.2346 49.095 19.3883ZM15.733 19.6834C13.87 19.6834 13.663 23.2047 13.663 23.2047L13.4528 52.5967C13.6598 54.0457 14.0754 53.8379 14.0754 53.8379C15.9384 52.5959 15.733 50.5268 15.733 50.5268C15.733 50.5268 15.9392 22.5838 15.9392 22.1698C15.9392 21.7558 15.733 19.6834 15.733 19.6834ZM16.5941 52.7904C16.5057 52.7944 16.4065 52.809 16.303 52.8388C15.8891 52.957 15.3786 53.3131 14.9486 54.1729L14.9405 54.1895L14.9364 54.2061C14.9364 54.2061 14.8136 54.5919 14.9081 54.9702C14.9554 55.1594 15.0765 55.36 15.2963 55.4634C15.5086 55.5634 15.79 55.5669 16.1574 55.4674H26.2644L28.9772 56.0941L29.0136 56.0861C29.0136 56.0861 29.2075 56.0414 29.4462 55.9526C29.6849 55.864 29.9759 55.7341 30.1901 55.52C30.2971 55.413 30.3866 55.281 30.4245 55.1238C30.4625 54.9665 30.4419 54.7862 30.3598 54.6104C30.1958 54.2588 29.8059 53.9011 29.0661 53.4784L29.0257 53.4542H19.2703C19.2552 53.4502 18.8144 53.3544 18.3081 53.2278C17.7934 53.099 17.2046 52.9287 17.0508 52.8518L17.0427 52.8478H17.0386C17.0386 52.8478 16.8593 52.7761 16.5941 52.7904ZM47.3481 53.3362C46.766 53.307 45.9533 53.4252 45.9533 53.4252C44.2973 54.4602 34.5683 53.6314 34.5683 53.6314C33.9473 53.6314 33.1169 54.6664 33.1169 54.6664C32.9099 56.5294 36.0164 55.7014 35.8095 55.7014H47.4005C49.2635 56.1153 49.2643 55.289 49.2643 55.289C49.2643 54.668 47.817 53.4252 47.817 53.4252C47.7135 53.3735 47.5422 53.3459 47.3481 53.3362ZM32.0341 55.6568C31.9811 55.6608 31.9282 55.6754 31.8765 55.7013C31.8765 55.7013 30.0127 55.7033 30.0127 58.1877C30.0127 58.1877 30.2197 60.0474 32.0827 60.0474C32.0827 60.0474 33.7403 59.6342 33.7403 57.7713C33.7403 57.7713 32.8301 55.5886 32.0341 55.6568ZM76.5861 18.0298C76.5861 18.0298 75.3441 18.0306 75.5511 18.8586L75.1388 50.3206C75.1388 50.3206 75.1379 51.7712 77.4149 51.9782C77.4149 51.9782 80.3152 52.1852 80.9361 51.9782H87.5583C87.5583 51.9782 88.7996 53.2178 88.7996 51.5618C88.7996 51.5618 89.63 26.1008 89.216 20.7188C89.216 20.7188 89.2152 18.4427 87.3522 18.4427C87.3522 18.4427 79.8996 19.0637 79.2786 18.4427L76.5861 18.0298ZM105.238 18.2845C104.994 18.2948 104.636 18.3897 104.118 18.6484C104.118 18.6484 104.324 19.4788 95.0096 19.0648C94.8026 19.0648 91.0759 18.8562 91.0759 20.5122C91.0759 20.5122 90.8697 35.4162 90.8697 35.8302L90.6635 48.2502L90.2512 52.5963C90.2512 52.5963 90.8722 53.4234 91.2862 52.8024C91.2862 52.8024 94.3911 51.9761 96.4611 52.3901C96.4611 52.3901 102.669 53.0127 104.118 51.9777C104.118 51.9777 105.152 52.3917 105.359 50.9427C105.359 50.9427 105.773 23.4127 105.566 22.9987C105.566 22.9987 105.983 19.0626 105.776 18.6486C105.776 18.6486 105.776 18.26 105.238 18.2845ZM70.9871 18.8505C70.5808 18.8629 69.9893 19.1173 69.1355 19.8935V23.8232C69.1355 23.8232 69.1355 26.1002 67.0655 25.8932C67.0655 25.8932 64.7902 25.8932 63.5482 26.9282C63.5482 26.9282 62.9248 28.999 65.2017 28.792C65.2017 28.792 68.7222 28.794 68.9292 30.2434L68.723 45.1454C68.723 45.1454 69.551 47.6277 66.653 47.6277C66.653 47.6277 63.3419 47.4215 63.3419 49.4915C63.3419 49.4915 63.9613 51.1467 66.8592 50.7327C66.8592 50.7327 68.9292 51.1499 68.9292 53.0129V56.7364C68.9292 56.7364 68.7239 58.187 70.5868 58.394H85.9008C85.9008 58.394 86.7296 58.3932 86.7296 57.5652C86.7296 57.5652 86.7304 56.7364 85.4884 56.7364L73.0684 56.5303C73.0684 56.5303 70.9993 57.1529 70.7923 54.048C70.7923 54.048 70.9993 26.307 70.7923 25.893V26.3094C70.7923 26.3094 70.5853 21.5469 71.8273 19.477C71.8273 19.477 71.6643 18.8303 70.9871 18.8505ZM110.389 18.9273C109.501 19.0041 109.5 20.0997 109.5 20.0997C109.707 20.5137 110.122 21.9635 110.122 21.9635C110.329 25.2754 110.122 29.0005 110.122 32.5195C109.915 44.3185 109.5 55.0825 109.5 55.0825C109.5 57.3594 108.258 56.736 108.258 56.736H94.5975C93.1485 56.736 93.1461 57.5648 93.1461 57.5648C93.3531 58.8068 94.8037 58.3944 94.8037 58.1874C96.0457 58.3944 109.706 58.1874 109.706 58.1874C111.776 58.3944 111.569 55.701 111.569 55.701C111.776 50.9401 112.192 50.5261 112.192 50.5261C112.606 50.3191 114.881 50.3199 114.881 50.3199C118.399 50.5269 116.744 48.0438 116.744 48.0438C116.33 47.4229 113.846 47.4212 113.846 47.4212C111.569 47.6282 111.776 45.1451 111.776 45.1451L111.986 30.8621C111.572 29.6201 112.604 28.9983 112.604 28.9983H114.881C117.985 29.2053 117.161 27.1386 117.161 27.1386C117.161 26.1036 114.468 25.6872 114.468 25.6872C111.984 26.1012 112.192 24.6522 112.192 24.6522V21.3412C112.606 19.0642 111.157 19.0651 111.157 19.0651C110.847 18.9488 110.594 18.9095 110.389 18.9273ZM107.466 19.465C107.202 19.4867 106.911 19.6728 106.601 20.0997V51.1487C106.601 51.1487 107.429 53.838 108.671 53.631C108.671 53.631 108.881 53.0125 108.881 51.9775L109.294 22.3755C109.294 22.3755 108.611 19.3711 107.466 19.465ZM74.1041 19.6833C72.2411 19.6833 72.0341 23.2046 72.0341 23.2046L71.8279 52.5966C72.0349 54.0456 72.4465 53.8378 72.4465 53.8378C74.3095 52.5958 74.1041 50.5267 74.1041 50.5267C74.1041 50.5267 74.3103 22.5837 74.3103 22.1697C74.3103 21.7557 74.1041 19.6833 74.1041 19.6833ZM75.2887 52.7583C74.9274 52.748 74.261 52.9094 73.6918 54.048C73.6918 54.048 73.2778 55.497 74.7268 55.083H84.8668L87.5594 55.7016C87.5594 55.7016 90.4573 55.0814 87.5594 53.4255H77.8323C77.8323 53.4255 75.9661 53.0099 75.5521 52.8029C75.5521 52.8029 75.453 52.7635 75.2887 52.7583ZM105.833 53.1263C105.307 53.1366 104.741 53.2192 104.741 53.2192C103.085 54.2542 93.3561 53.4254 93.3561 53.4254C92.7351 53.4254 91.9047 54.4604 91.9047 54.4604C91.4907 56.3234 94.5973 55.4954 94.5973 55.4954H106.188C108.051 55.9094 108.052 55.083 108.052 55.083C108.052 54.462 106.601 53.2192 106.601 53.2192C106.445 53.1416 106.148 53.1203 105.833 53.1263ZM90.6157 55.4509C90.5611 55.4549 90.5098 55.4695 90.4581 55.4954C90.4581 55.4954 88.5935 55.4934 88.8005 57.9777C88.8005 57.9777 89.0075 59.8415 90.8705 59.8415C90.8705 59.8415 92.5281 59.6354 92.5281 57.5654C92.5281 57.5654 91.4344 55.3827 90.6157 55.4509ZM59.8227 95.6529C59.8227 95.6529 59.8227 97.9298 59.6157 100.207C59.4087 101.449 60.0297 107.245 59.6157 110.143C59.6157 110.143 59.6157 111.178 57.5457 110.35C57.5457 110.35 44.9187 110.557 44.7117 110.143C44.7117 110.143 41.1928 110.35 40.9858 108.487C40.9858 108.487 41.3998 95.0316 41.1928 94.6176C41.1928 94.6176 40.9858 87.3728 41.1928 86.5448C41.1928 86.5448 41.3998 79.714 41.1928 78.886C41.1928 78.886 41.1928 77.23 40.9858 76.6091C40.9858 76.6091 40.9858 75.5741 42.6418 76.1951C42.6418 76.1951 43.2628 77.2301 46.3677 76.8161C46.3677 76.8161 48.6446 77.2301 50.9216 76.8161C50.9216 76.8161 55.8895 76.4021 57.1314 76.8161C57.1314 76.8161 59.2014 76.4021 59.6153 78.6791V84.6819L60.2363 86.7519L60.8573 86.3379L61.0643 84.8889V78.4721C61.0643 78.4721 61.4783 77.2301 63.1343 77.0231C63.1343 77.0231 65.6182 76.8161 66.0322 77.0231C66.4462 77.2301 71.8281 77.4371 73.277 77.2301C74.726 77.0231 74.933 78.2651 79.4869 75.9881C79.4869 75.9881 80.7289 75.9881 80.7289 76.8161C80.7289 76.8161 80.3149 85.0959 80.7289 86.7519C80.7289 86.7519 80.7289 102.07 80.3149 103.105L80.5219 108.073C80.5219 108.073 80.7289 110.143 77.21 110.35C77.21 110.35 79.28 110.557 65.825 110.143C65.825 110.143 63.755 109.936 61.2711 111.178C61.2711 111.178 60.8571 110.971 60.8571 109.729C60.8571 109.729 61.2711 105.175 60.8571 100.621L60.6501 95.653L59.8227 95.6529ZM81.5567 109.108C81.5567 109.108 82.7987 111.385 83.2127 111.592C83.2127 111.592 84.2477 112.834 84.0407 110.557L84.2477 82.1988C84.2477 82.1988 84.0407 81.1638 84.2477 79.7149L83.0057 77.6449C83.0057 77.6449 81.7637 76.6099 81.7637 78.2659V108.28L81.5567 109.108ZM40.3647 110.35C40.3647 110.35 41.8137 111.799 44.0906 111.799L57.3386 112.006C57.3386 112.006 58.7876 112.213 58.7876 112.834C58.7876 112.834 58.5806 114.076 56.7176 113.662L40.5716 113.455L38.7086 113.662C38.7086 113.662 37.4666 113.455 39.3296 111.178L40.3647 110.35ZM37.4668 77.8519C37.4668 77.8519 36.2248 79.9219 36.4318 80.5428V113.248C36.4318 113.248 36.2248 115.525 38.0878 114.904C38.0878 114.904 55.2688 114.49 56.5108 114.904C56.5108 114.904 58.1668 115.111 57.5458 115.939C57.5458 115.939 57.5458 116.56 56.5108 116.353C56.5108 116.353 48.438 117.181 40.9858 116.767C40.9858 116.767 36.0179 116.974 35.8109 116.56C35.8109 116.56 34.9829 116.353 34.9829 113.662C34.9829 113.662 34.9829 110.971 34.7759 110.557C34.7759 110.557 34.9829 109.108 32.499 108.901C32.499 108.901 28.9801 109.522 28.9801 107.452C28.9801 107.452 29.3941 106.003 32.913 106.21C32.913 106.21 35.3969 106.624 34.776 104.554L34.983 90.064C34.983 90.064 35.397 87.5801 33.534 87.3731H31.464C31.464 87.3731 28.5661 87.3731 28.7731 85.7171C28.7731 85.7171 29.8081 84.0611 32.706 84.2681C32.706 84.2681 34.776 84.6821 34.9829 82.1981C34.9829 82.1981 34.9829 77.2302 36.0179 77.0232C35.8109 77.0232 38.2947 77.231 37.4668 77.8519ZM39.1229 77.6442C39.1229 77.6442 39.7439 77.6442 39.7439 78.8862L39.5369 108.486C39.5369 108.486 39.7439 110.349 38.0879 111.798C38.0879 111.798 37.2599 112.833 37.2599 111.177L37.6739 80.9561C37.6739 80.9561 37.6739 78.6791 39.1229 77.6442ZM62.3059 112.419C62.3059 112.419 63.9619 111.177 64.7898 111.384C64.7898 111.384 73.6906 112.005 76.3818 111.591C79.0727 111.177 77.4168 111.384 77.4168 111.384C77.4168 111.384 79.6938 111.384 80.5217 110.556C80.5217 110.556 81.1427 110.349 81.5567 110.97L83.0057 112.626C83.0057 112.626 83.0057 113.661 81.3497 113.454C81.3497 113.454 65.4107 113.454 64.7897 113.661C64.9967 113.661 62.0989 114.075 62.3059 112.419ZM63.3408 115.11C63.3408 115.11 64.5828 114.489 65.4108 114.696C66.2388 114.903 77.6238 114.489 77.6238 114.489C77.6238 114.489 82.5917 114.903 83.4197 114.075L84.6617 113.661C84.6617 113.661 85.0757 113.04 85.0757 112.212V108.693L85.2827 107.658V80.5423C85.2827 80.5423 85.6967 78.4723 84.4547 77.2304C84.4547 77.2304 84.4547 76.4024 84.8687 76.6094C85.2827 76.8164 85.0757 76.6094 85.0757 76.6094C85.0757 76.6094 86.7317 76.1954 87.1457 76.8164C87.1457 76.8164 87.9737 79.0934 87.1457 80.5423C87.1457 80.5423 86.9387 83.4402 88.3877 83.4402C88.3877 83.4402 89.0087 84.0612 90.0437 83.6472C90.0437 83.6472 92.5276 83.8541 92.5276 84.6822C92.5276 84.6822 92.5276 86.5452 90.8716 86.1312L88.5946 86.3382C88.5946 86.3382 86.9386 86.7521 87.1456 88.4082C87.3526 90.2712 87.1456 103.726 87.1456 103.726C87.1456 103.726 87.1456 105.382 89.6295 105.175C89.6295 105.175 92.7344 104.968 92.7344 106.003C92.7344 106.003 93.5624 107.866 91.2854 108.073C91.2854 108.073 87.1455 107.866 87.5595 109.108C87.5595 109.108 87.3525 111.799 87.1455 112.42C87.1455 112.42 87.5595 114.697 87.1455 115.111C87.1455 115.111 86.9385 116.353 84.2476 116.146C84.2476 116.146 67.4806 116.146 64.7896 116.353C64.5826 116.767 62.9268 116.559 63.3408 115.11ZM60.4427 113.248C60.4427 113.248 62.0987 113.455 62.0987 115.111C62.0987 116.767 62.0987 117.595 61.2708 117.802C60.2358 118.009 59.2008 117.595 58.9939 116.353C58.5799 115.111 58.9937 113.662 60.4427 113.248Z"
                fill="white"
              />
              <path
                d="M29.6 29.4101L28.772 31.2731C28.772 31.2731 26.7021 40.7949 25.4602 42.6581C25.4602 42.6581 25.2531 44.7281 23.5971 43.072C23.5971 43.072 19.6643 31.066 19.4573 30.652L18.2153 29.8241C18.2153 29.8241 17.3873 28.7891 18.8362 28.5821H22.5621C22.5621 28.5821 23.8041 29.6171 22.1481 30.6521C22.1481 30.6521 22.3551 32.3081 24.425 38.3109C24.425 38.3109 25.046 40.5878 25.667 38.9318L27.737 31.894L27.1161 29.824C27.1161 29.824 26.4951 28.789 27.3231 28.789C27.3231 28.789 29.3931 28.5821 29.6 29.4101ZM35.1889 31.066V41.416L34.9819 42.244C34.9819 42.244 33.9469 43.486 34.7749 43.693C34.7749 43.693 33.9469 44.314 40.9847 44.314C40.9847 44.314 43.6756 44.728 43.0547 41.2091C43.0547 41.2091 42.8477 39.9671 41.8127 41.8301C41.8127 41.8301 41.6057 43.4861 37.8798 42.8651C37.8798 42.8651 37.0518 42.2441 37.0518 41.4161V37.0692C37.0518 37.0692 37.0518 36.0342 38.7078 36.0342C38.7078 36.0342 40.5708 37.2762 40.7778 36.6552C40.7778 36.6552 41.3988 34.9992 40.7778 34.1713C40.7778 34.1713 39.9498 34.1713 39.7428 34.3783C39.7428 34.3783 39.1218 35.6203 37.4659 34.7923C37.4659 34.7923 36.6379 33.1363 37.2589 31.8944C37.2589 31.8944 37.0519 29.4105 38.7079 29.6174C38.7079 29.6174 40.7779 30.0314 40.7779 30.6524C40.7779 30.6524 41.1919 31.8944 41.8129 30.4454L41.3989 28.9964C41.3989 28.9964 41.1919 28.3754 40.5709 28.5824C40.5709 28.5824 37.259 28.9964 36.845 28.5824L34.1541 28.7894C34.1541 28.7894 33.7401 29.8244 34.9821 30.2384C34.9821 30.4454 35.1889 30.652 35.1889 31.066ZM94.5971 29.4104C94.3901 28.5824 96.2531 28.5824 96.2531 28.5824L97.2881 28.7894C97.9091 28.7894 98.7371 28.9964 98.7371 28.9964C99.3581 30.0314 98.3231 30.6524 98.3231 30.6524L97.9091 31.8944V42.2444C98.1161 42.6584 98.9441 43.6934 98.9441 43.6934C98.9441 44.5213 97.9091 44.3143 97.9091 44.3143H95.0112C94.1832 44.3143 94.3902 43.2793 94.3902 43.2793C95.4252 42.8654 95.6322 41.0023 95.6322 41.0023V31.2735L94.5971 29.4104ZM81.3491 38.5182L81.1421 41.6231L81.9701 43.0721C82.5911 43.9 81.5561 44.5211 81.5561 44.5211L78.4512 44.1071C77.8302 43.9001 78.4512 42.8651 78.4512 42.8651C79.2792 42.4511 79.2792 41.2091 79.2792 41.2091V31.2733C79.2792 30.8593 78.4512 29.8243 78.4512 29.8243C77.8302 29.8243 78.0372 28.7893 78.0372 28.7893C78.2442 28.3753 79.9002 28.5823 79.9002 28.5823H84.0401C87.973 29.8243 87.352 32.7222 87.352 32.7222C87.559 35.6201 84.6611 36.6551 84.6611 36.6551L84.4541 38.3111L87.352 42.865C87.766 43.279 87.766 43.6929 87.766 43.6929C87.352 44.7279 85.696 43.6929 85.696 43.6929L82.1771 38.104C81.7631 37.6901 81.3491 38.5182 81.3491 38.5182ZM81.3491 30.6522V35.8271C83.2121 37.2761 84.247 35.2061 84.247 35.2061C86.7309 32.9292 84.247 30.6522 83.833 30.0312C83.419 29.4102 81.556 30.0312 81.556 30.0312L81.3491 30.6522ZM51.1281 88.6112C51.1281 88.6112 51.3351 95.856 51.1281 96.891V98.547C51.1281 98.547 51.5421 99.582 52.1631 99.996C52.1631 99.996 52.5771 101.445 51.5421 101.238C51.5421 101.238 49.0582 101.031 48.4372 101.238C48.4372 101.238 46.9882 101.238 48.4372 99.582C48.4372 99.582 48.8512 98.961 48.8512 97.0981C48.8512 97.0981 48.8512 88.8183 49.0582 88.4043C49.0582 88.4043 49.2652 87.3693 48.6442 86.9553H47.4022L45.9532 88.4043C45.9532 88.4043 45.5392 89.8533 44.9182 88.4043V87.5763L45.7462 85.2993H46.3672C46.3672 85.2993 47.1952 85.9203 48.0232 86.1273H52.5771L54.2331 85.2993C54.2331 85.2993 54.8541 85.2993 54.6471 86.3343C54.6471 86.3343 54.8541 88.6112 53.6121 88.8182C53.6121 88.8182 52.7841 88.6112 52.3701 87.3692C52.3701 87.1622 51.1281 86.3342 51.1281 88.6112ZM72.6551 85.9203C72.6551 85.9203 68.9292 85.5064 68.9292 89.6462C68.9292 89.6462 68.5152 92.3371 72.6551 94.2001C72.6551 94.2001 75.76 95.6491 75.553 97.512C75.553 97.512 75.139 100.824 71.8271 99.168C71.8271 99.168 70.1711 98.3401 70.3781 97.512C70.3781 97.512 69.9641 96.477 69.3431 96.6841C69.3431 96.6841 68.7221 96.8911 68.9291 100.203C68.9291 100.203 68.9291 101.445 70.3781 100.203L71.2061 100.41C71.2061 100.41 73.897 102.48 76.174 99.996C76.174 99.996 78.6579 97.719 76.7949 95.0281C76.7949 95.0281 75.5529 92.9581 73.276 92.1302C73.276 92.1302 71.206 91.0952 70.5851 89.4393C70.5851 89.4393 71.2061 86.5414 73.897 87.9903C73.897 87.9903 74.932 89.2323 75.553 89.4393C75.553 89.4393 76.381 89.4393 76.174 87.5763L75.967 86.1273C75.967 86.1273 75.76 85.0923 74.311 86.1273C74.311 85.9203 73.0691 86.5413 72.6551 85.9203ZM60.856 83.8503C61.477 84.2643 61.684 85.2993 61.684 85.2993C63.754 90.4742 65.4099 98.1333 65.4099 98.1333C65.8239 99.1683 66.8589 99.7893 66.8589 99.7893C68.5149 100.41 66.8589 100.824 66.8589 100.824C66.2379 101.031 63.961 100.824 63.961 100.824C62.719 100.617 63.34 100.203 63.34 100.203C63.754 99.7893 63.34 97.7194 63.34 97.7194C63.34 96.8914 62.305 95.6494 62.305 95.6494C61.891 95.4424 61.27 96.2704 61.27 96.2704C61.27 96.2704 60.235 96.6844 60.028 96.2704C59.821 95.8564 59.2 95.4424 59.2 95.4424C57.958 95.4424 57.544 98.3403 57.544 98.3403C58.165 100.824 57.544 100.41 57.544 100.41C56.9231 101.238 55.0601 100.617 55.0601 100.617C54.2322 100.41 54.8531 99.7893 54.8531 99.7893C55.8881 99.5823 56.3021 98.3403 56.3021 98.3403C56.7161 97.7193 60.028 84.8853 60.028 84.8853C59.821 84.6783 60.028 83.4363 60.856 83.8503ZM59.2 90.4741C59.2 90.8881 58.372 93.786 58.372 93.786L58.993 94.821H61.063C61.477 94.821 61.684 94.407 61.684 93.786C61.684 93.372 60.649 90.2671 60.649 90.2671L60.235 89.6461L59.2 90.4741Z"
                fill="black"
              />
            </svg>