<svg width="150" height="31" viewBox="0 0 150 31" fill="none" xmlns="http://www.w3.org/2000/svg">
<path d="M54.9249 1.69995H60.5968L70.2412 19.1458L79.8854 1.69995H85.4345V30.3668H80.8069V8.39584L72.3502 23.6097H68.0092L59.5525 8.39584V30.3668H54.9249V1.69995Z" fill="white"/>
<path d="M100.361 30.8788C98.218 30.8788 96.3342 30.4045 94.7099 29.4557C93.0853 28.507 91.8192 27.1931 90.9116 25.5141C90.0036 23.8349 89.5497 21.9101 89.5499 19.7397C89.5499 17.542 89.9935 15.5968 90.8808 13.904C91.7681 12.2115 93.0001 10.8873 94.5768 9.93142C96.1536 8.97613 97.9657 8.49836 100.013 8.49811C102.047 8.49811 103.798 8.97927 105.266 9.94161C106.733 10.9042 107.862 12.2523 108.654 13.9858C109.446 15.7196 109.842 17.7536 109.842 20.0878V21.3571H94.1366C94.4233 23.1048 95.1298 24.4801 96.256 25.4832C97.3821 26.4866 98.8052 26.9882 100.525 26.9881C101.904 26.9881 103.091 26.7834 104.088 26.3739C105.084 25.9643 106.02 25.3433 106.893 24.5106L109.35 27.5206C106.907 29.7596 103.91 30.879 100.361 30.8788ZM103.74 13.8731C102.771 12.8836 101.501 12.3887 99.9314 12.3885C98.4024 12.3885 97.1226 12.8937 96.0921 13.904C95.0613 14.9141 94.4094 16.2724 94.1366 17.9787H105.399C105.262 16.2313 104.709 14.8628 103.74 13.8731Z" fill="white"/>
<path d="M115.453 12.7983H111.194V9.01012H115.453V2.74445H119.917V9.01012H126.387V12.7983H119.917V22.4016C119.917 23.9986 120.19 25.1384 120.736 25.8211C121.281 26.5039 122.217 26.8451 123.541 26.8448C124.128 26.8448 124.626 26.821 125.036 26.7732C125.445 26.7256 125.896 26.6608 126.387 26.5786V30.3258C125.826 30.488 125.255 30.6112 124.677 30.6945C124.016 30.7918 123.349 30.8397 122.681 30.8378C117.862 30.8378 115.453 28.2032 115.453 22.934V12.7983Z" fill="white"/>
<path d="M149.649 30.3668H145.267V27.3773C144.489 28.4968 143.499 29.3602 142.298 29.9675C141.096 30.5747 139.731 30.8785 138.202 30.8788C136.319 30.8788 134.65 30.3976 133.196 29.4351C131.742 28.4727 130.599 27.1486 129.766 25.4628C128.934 23.7769 128.517 21.8487 128.517 19.6783C128.517 17.4942 128.94 15.5625 129.787 13.8833C130.633 12.2044 131.804 10.8871 133.298 9.93142C134.793 8.97613 136.51 8.49836 138.448 8.49811C139.909 8.49811 141.219 8.7814 142.38 9.34799C143.524 9.9017 144.516 10.7278 145.267 11.7538V9.01012H149.649V30.3668ZM145.185 16.484C144.707 15.269 143.953 14.31 142.922 13.6069C141.891 12.9039 140.7 12.5525 139.349 12.5525C137.438 12.5525 135.916 13.194 134.783 14.4772C133.65 15.7604 133.083 17.4941 133.084 19.6782C133.084 21.8762 133.63 23.6167 134.722 24.8998C135.814 26.183 137.295 26.8245 139.165 26.8245C140.544 26.8245 141.772 26.4695 142.851 25.7596C143.929 25.0501 144.707 24.0946 145.185 22.8929L145.185 16.484Z" fill="white"/>
<path d="M4.90304 20.6302C4.90304 22.3635 5.28349 23.6942 5.78073 24.4993C6.43269 25.5538 7.40508 26.0005 8.39643 26.0005C9.67507 26.0005 10.8448 25.6832 13.099 22.5655C14.9049 20.0667 17.0328 16.5591 18.4646 14.3601L20.8893 10.6347C22.5736 8.04744 24.5231 5.17126 26.7584 3.22172C28.5832 1.63053 30.5517 0.746521 32.5328 0.746521C35.8589 0.746521 39.0271 2.67395 41.4517 6.28889C44.1053 10.248 45.3935 15.2347 45.3935 20.3808C45.3935 23.4401 44.7904 25.688 43.7644 27.4639C42.773 29.1814 40.8408 30.8973 37.5906 30.8973V26.0005C40.3736 26.0005 41.0682 23.4432 41.0682 20.5166C41.0682 16.346 40.0958 11.7176 37.9536 8.41049C36.4335 6.06474 34.4634 4.63138 32.296 4.63138C29.9519 4.63138 28.0655 6.39938 25.9454 9.5518C24.8183 11.2267 23.6612 13.2678 22.3621 15.5709L20.9319 18.1045C18.0589 23.1986 17.3312 24.3588 15.8947 26.2736C13.3768 29.6265 11.2268 30.8973 8.39643 30.8973C5.0388 30.8973 2.91562 29.4434 1.60067 27.2524C0.527238 25.467 0 23.1244 0 20.455L4.90304 20.6302Z" fill="white"/>
<path d="M3.86594 6.63458C6.11382 3.16962 9.35779 0.746521 13.0785 0.746521C15.2332 0.746521 17.3754 1.38427 19.6122 3.21068C22.059 5.20758 24.6668 8.49575 27.9202 13.915L29.0868 15.8598C31.903 20.5513 33.5052 22.9649 34.4429 24.1031C35.6489 25.5648 36.4935 26.0005 37.5906 26.0005C40.3736 26.0005 41.0682 23.4432 41.0682 20.5166L45.3935 20.3808C45.3935 23.4401 44.7904 25.688 43.7644 27.4639C42.773 29.1814 40.8409 30.8973 37.5906 30.8973C35.57 30.8973 33.7799 30.4584 31.8004 28.591C30.2786 27.1576 28.4996 24.6114 27.1309 22.3225L23.0598 15.522C21.0171 12.1091 19.1434 9.56442 18.0589 8.41207C16.8923 7.17289 15.3927 5.6764 12.9996 5.6764C11.0627 5.6764 9.41778 7.03556 8.04126 9.11454L3.86594 6.63458Z" fill="white"/>
<path d="M12.9995 5.6764C11.0626 5.6764 9.41777 7.03556 8.04125 9.11454C6.09486 12.0523 4.90304 16.4281 4.90304 20.6302C4.90304 22.3635 5.28349 23.6942 5.78073 24.4993L1.60067 27.2524C0.527238 25.467 0 23.1244 0 20.455C0 15.6009 1.33231 10.5416 3.86592 6.63458C6.11381 3.16962 9.35778 0.746521 13.0785 0.746521L12.9995 5.6764Z" fill="white"/>
</svg>
